<?xml version="1.0" encoding="UTF-8"?>
<svg width="315px" height="160px" viewBox="0 0 315 160" version="1.1" xmlns="http://www.w3.org/2000/svg" xmlns:xlink="http://www.w3.org/1999/xlink">
    <!-- Generator: Sketch 59.1 (86144) - https://sketch.com -->
    <title>Artboard</title>
    <desc>Created with Sketch.</desc>
    <g id="Artboard" stroke="none" stroke-width="1" fill="none" fill-rule="evenodd">
        <g id="salesforce" transform="translate(82.000000, 27.000000)">
            <g id="g3003" transform="translate(75.500000, 53.500000) scale(-1, 1) rotate(-180.000000) translate(-75.500000, -53.500000) " fill="#00A1E0" fill-rule="nonzero">
                <path d="M62.984064,94.7835762 C67.8442611,99.8652683 74.6107545,103.016822 82.0942558,103.016822 C92.0422033,103.016822 100.721433,97.4504413 105.343343,89.1870368 C109.359875,90.9879248 113.805753,91.9896148 118.483478,91.9896148 C136.425849,91.9896148 150.972093,77.2658479 150.972093,59.1040223 C150.972093,40.9400424 136.425849,26.2162755 118.483478,26.2162755 C116.293814,26.2162755 114.153524,26.4360011 112.084076,26.8560646 C108.013876,19.5706543 100.25774,14.6483709 91.3552496,14.6483709 C87.6285261,14.6483709 84.1035952,15.5121939 80.9650757,17.0481187 C76.8390604,7.30910623 67.2260028,0.480380397 56.0222181,0.480380397 C44.3547398,0.480380397 34.4110858,7.88857854 30.5941996,18.278151 C28.9261902,17.9227126 27.1980725,17.7374538 25.4248734,17.7374538 C11.5333826,17.7374538 0.271636249,29.1545664 0.271636249,43.2406983 C0.271636249,52.6802808 5.3314792,60.9221436 12.8493282,65.331734 C11.3015357,68.9055057 10.440697,72.849795 10.440697,76.9965764 C10.440697,93.1959513 23.5464845,106.327785 39.7113625,106.327785 C49.2020565,106.327785 57.6365592,101.799715 62.984064,94.7835762" id="path3005"></path>
            </g>
            <g id="g3007" transform="translate(26.500000, 49.500000) scale(-1, 1) rotate(-180.000000) translate(-26.500000, -49.500000) translate(21.000000, 42.000000)" fill="#FFFFFF" fill-rule="nonzero">
                <path d="M0.6875,2.14285714 C0.59675,1.89642857 0.7205,1.845 0.749375,1.80214286 C1.021625,1.59642857 1.298,1.44857143 1.5764375,1.28357143 C3.0531875,0.469285714 4.4474375,0.231428571 5.905625,0.231428571 C8.875625,0.231428571 10.7195,1.87285714 10.7195,4.515 L10.7195,4.56642857 C10.7195,7.00928571 8.6384375,7.89642857 6.68525,8.53714286 L6.4315625,8.62285714 C4.9589375,9.12 3.6884375,9.54857143 3.6884375,10.5557143 L3.6884375,10.6092857 C3.6884375,11.4707143 4.4309375,12.105 5.5818125,12.105 C6.8605625,12.105 8.3785625,11.6635714 9.3561875,11.1021429 C9.3561875,11.1021429 9.642875,10.9092857 9.7480625,11.1985714 C9.8058125,11.3528571 10.3008125,12.7371429 10.352375,12.8871429 C10.4080625,13.05 10.3090625,13.17 10.208,13.2342857 C9.0921875,13.9392857 7.5494375,14.4214286 5.9530625,14.4214286 L5.6560625,14.4192857 C2.9376875,14.4192857 1.0401875,12.7135714 1.0401875,10.2685714 L1.0401875,10.2171429 C1.0401875,7.63928571 3.133625,6.80357143 5.0950625,6.22071429 L5.410625,6.12 C6.8399375,5.66357143 8.07125,5.27142857 8.07125,4.22571429 L8.07125,4.17428571 C8.07125,3.21857143 7.271,2.50714286 5.979875,2.50714286 C5.4786875,2.50714286 3.88025,2.51785714 2.1539375,3.65142857 C1.945625,3.77785714 1.8239375,3.87 1.6630625,3.97071429 C1.5785,4.02642857 1.3660625,4.12285714 1.27325,3.83142857 L0.6875,2.14285714 Z" id="path3009"></path>
            </g>
            <g id="g3011" transform="translate(72.500000, 49.500000) scale(-1, 1) rotate(-180.000000) translate(-72.500000, -49.500000) translate(67.000000, 42.000000)" fill="#FFFFFF" fill-rule="nonzero">
                <path d="M0.6875,2.14285714 C0.59675,1.89642857 0.7205,1.845 0.749375,1.80214286 C1.021625,1.59642857 1.298,1.44857143 1.5764375,1.28357143 C3.0531875,0.469285714 4.4474375,0.231428571 5.905625,0.231428571 C8.875625,0.231428571 10.7195,1.87285714 10.7195,4.515 L10.7195,4.56642857 C10.7195,7.00928571 8.6384375,7.89642857 6.68525,8.53714286 L6.4315625,8.62285714 C4.9589375,9.12 3.6884375,9.54857143 3.6884375,10.5557143 L3.6884375,10.6092857 C3.6884375,11.4707143 4.4309375,12.105 5.5818125,12.105 C6.8605625,12.105 8.3785625,11.6635714 9.3561875,11.1021429 C9.3561875,11.1021429 9.642875,10.9092857 9.7480625,11.1985714 C9.8058125,11.3528571 10.3008125,12.7371429 10.352375,12.8871429 C10.4080625,13.05 10.3090625,13.17 10.208,13.2342857 C9.0921875,13.9392857 7.5494375,14.4214286 5.9530625,14.4214286 L5.6560625,14.4192857 C2.9376875,14.4192857 1.0401875,12.7135714 1.0401875,10.2685714 L1.0401875,10.2171429 C1.0401875,7.63928571 3.133625,6.80357143 5.0950625,6.22071429 L5.410625,6.12 C6.8399375,5.66357143 8.0733125,5.27142857 8.0733125,4.22571429 L8.0733125,4.17428571 C8.0733125,3.21857143 7.271,2.50714286 5.979875,2.50714286 C5.4786875,2.50714286 3.88025,2.51785714 2.1539375,3.65142857 C1.945625,3.77785714 1.821875,3.86571429 1.665125,3.97071429 C1.6115,4.00714286 1.359875,4.10785714 1.27325,3.83142857 L0.6875,2.14285714 Z" id="path3013"></path>
            </g>
            <g id="g3015" transform="translate(95.500000, 50.000000) scale(-1, 1) rotate(-180.000000) translate(-95.500000, -50.000000) translate(89.000000, 43.000000)" fill="#FFFFFF" fill-rule="nonzero">
                <path d="M9.57894737,7 C9.57894737,5.5363 9.31210526,4.3834 8.78663158,3.5686 C8.26731579,2.7622 7.48115789,2.3695 6.38505263,2.3695 C5.28689474,2.3695 4.50484211,2.7601 3.99373684,3.5686 C3.47647368,4.3813 3.21373684,5.5363 3.21373684,7 C3.21373684,8.4616 3.47647368,9.6124 3.99373684,10.4188 C4.50484211,11.2168 5.28689474,11.6053 6.38505263,11.6053 C7.48115789,11.6053 8.26731579,11.2168 8.78868421,10.4188 C9.31210526,9.6124 9.57894737,8.4616 9.57894737,7 M12.0462105,9.7132 C11.804,10.5511 11.4263158,11.2903 10.9234211,11.9056 C10.4205263,12.523 9.78421053,13.0186 9.02884211,13.3798 C8.27552632,13.7389 7.38468421,13.9216 6.38505263,13.9216 C5.38336842,13.9216 4.49252632,13.7389 3.73921053,13.3798 C2.98384211,13.0186 2.34752632,12.523 1.84257895,11.9056 C1.34173684,11.2882 0.964052632,10.549 0.719789474,9.7132 C0.479631579,8.8795 0.358526316,7.9681 0.358526316,7 C0.358526316,6.0319 0.479631579,5.1184 0.719789474,4.2868 C0.964052632,3.451 1.33968421,2.7118 1.84463158,2.0944 C2.34752632,1.477 2.98589474,0.9835 3.73921053,0.6328 C4.49457895,0.2821 5.38336842,0.1036 6.38505263,0.1036 C7.38468421,0.1036 8.27347368,0.2821 9.02884211,0.6328 C9.78215789,0.9835 10.4205263,1.477 10.9234211,2.0944 C11.4263158,2.7097 11.804,3.4489 12.0462105,4.2868 C12.2884211,5.1205 12.4095263,6.034 12.4095263,7 C12.4095263,7.966 12.2884211,8.8795 12.0462105,9.7132" id="path3017"></path>
            </g>
            <g id="g3019" transform="translate(117.500000, 50.000000) scale(-1, 1) rotate(-180.000000) translate(-117.500000, -50.000000) translate(112.000000, 43.000000)" fill="#FFFFFF">
                <path d="M10.2666667,2.8 C10.1786667,3.0457 9.93006667,2.9533 9.93006667,2.9533 C9.54506667,2.8126 9.13586667,2.6824 8.70026667,2.6173 C8.25806667,2.5522 7.77186667,2.5186 7.25046667,2.5186 C5.97006667,2.5186 4.95366667,2.8819 4.22546667,3.6001 C3.49506667,4.3183 3.08586667,5.4796 3.09026667,7.0504 C3.09466667,8.4805 3.45546667,9.5557 4.10446667,10.3747 C4.74906667,11.1895 5.73026667,11.6074 7.03926667,11.6074 C8.13046667,11.6074 8.96206667,11.4877 9.83326667,11.2252 C9.83326667,11.2252 10.0422667,11.1391 10.1412667,11.3995 C10.3722667,12.0127 10.5438667,12.4516 10.7902667,13.1257 C10.8606667,13.3168 10.6890667,13.3987 10.6274667,13.4218 C10.2842667,13.5499 9.47466667,13.7578 8.86306667,13.846 C8.29106667,13.93 7.62226667,13.9741 6.87866667,13.9741 C5.76766667,13.9741 4.77766667,13.7935 3.93066667,13.4323 C3.08586667,13.0732 2.36866667,12.5776 1.80106667,11.9602 C1.23346667,11.3428 0.802266667,10.6036 0.514066667,9.7678 C0.228066667,8.9341 0.0828666667,8.0185 0.0828666667,7.0504 C0.0828666667,4.9567 0.674666667,3.2641 1.84286667,2.0251 C3.01326667,0.7819 4.77106667,0.1498 7.06346667,0.1498 C8.41866667,0.1498 9.80906667,0.4123 10.8078667,0.7882 C10.8078667,0.7882 10.9992667,0.8764 10.9156667,1.0885 L10.2666667,2.8 Z" id="path3021"></path>
            </g>
            <g id="g3023" transform="translate(129.500000, 50.000000) scale(-1, 1) rotate(-180.000000) translate(-129.500000, -50.000000) translate(123.000000, 43.000000)" fill="#FFFFFF">
                <path d="M3.61111111,8.4 C3.73461111,9.2127 3.96644444,9.8889 4.32394444,10.416 C4.86344444,11.2161 5.68677778,11.655 6.84377778,11.655 C8.00077778,11.655 8.76561111,11.214 9.31377778,10.416 C9.67777778,9.8889 9.83594444,9.1833 9.89877778,8.4 L3.61111111,8.4 Z M12.3796111,10.1871 C12.1586111,10.9956 11.6104444,11.8125 11.2507778,12.1863 C10.6831111,12.7785 10.1284444,13.1922 9.57811111,13.4232 C8.85877778,13.7214 7.99644444,13.9188 7.05177778,13.9188 C5.95111111,13.9188 4.95227778,13.7403 4.14194444,13.3707 C3.32944444,13.0011 2.64694444,12.4971 2.11177778,11.8692 C1.57661111,11.2434 1.17361111,10.4979 0.917944444,9.6516 C0.660111111,8.8095 0.530111111,7.8918 0.530111111,6.9237 C0.530111111,5.9388 0.664444444,5.0211 0.930944444,4.1958 C1.19961111,3.3642 1.62861111,2.6313 2.20927778,2.0244 C2.78777778,1.4133 3.53311111,0.9345 4.42577778,0.6006 C5.31194444,0.2688 6.38877778,0.0966 7.62594444,0.0986810209 C10.1717778,0.1071 11.5129444,0.6573 12.0654444,0.9534 C12.1629444,1.0059 12.2561111,1.0983 12.1391111,1.3629 L11.5627778,2.9274 C11.4761111,3.1605 11.2312778,3.0744 11.2312778,3.0744 C10.6007778,2.8476 9.70377778,2.4402 7.61294444,2.4444 C6.24577778,2.4465 5.23177778,2.8371 4.59694444,3.4482 C3.94477778,4.074 3.62627778,4.9938 3.56994444,6.2916 L12.3861111,6.2832 C12.3861111,6.2832 12.6179444,6.2874 12.6417778,6.5058 C12.6504444,6.5982 12.9451111,8.2614 12.3796111,10.1871" id="path3025"></path>
            </g>
            <g id="g3027" transform="translate(59.500000, 50.000000) scale(-1, 1) rotate(-180.000000) translate(-59.500000, -50.000000) translate(53.000000, 43.000000)" fill="#FFFFFF">
                <path d="M3.61111111,8.4 C3.73677778,9.2127 3.96644444,9.8889 4.32394444,10.416 C4.86344444,11.2161 5.68677778,11.655 6.84377778,11.655 C8.00077778,11.655 8.76561111,11.214 9.31594444,10.416 C9.67777778,9.8889 9.83594444,9.1833 9.89877778,8.4 L3.61111111,8.4 Z M12.3774444,10.1871 C12.1564444,10.9956 11.6104444,11.8125 11.2507778,12.1863 C10.6831111,12.7785 10.1284444,13.1922 9.57811111,13.4232 C8.85877778,13.7214 7.99644444,13.9188 7.05177778,13.9188 C5.95327778,13.9188 4.95227778,13.7403 4.14194444,13.3707 C3.32944444,13.0011 2.64694444,12.4971 2.11177778,11.8692 C1.57661111,11.2434 1.17361111,10.4979 0.917944444,9.6516 C0.662277778,8.8095 0.530111111,7.8918 0.530111111,6.9237 C0.530111111,5.9388 0.664444444,5.0211 0.930944444,4.1958 C1.19961111,3.3642 1.62861111,2.6313 2.20927778,2.0244 C2.78777778,1.4133 3.53311111,0.9345 4.42577778,0.6006 C5.31194444,0.2688 6.38877778,0.0966 7.62594444,0.0986810209 C10.1717778,0.1071 11.5129444,0.6573 12.0654444,0.9534 C12.1629444,1.0059 12.2561111,1.0983 12.1391111,1.3629 L11.5649444,2.9274 C11.4761111,3.1605 11.2312778,3.0744 11.2312778,3.0744 C10.6007778,2.8476 9.70594444,2.4402 7.61077778,2.4444 C6.24577778,2.4465 5.23177778,2.8371 4.59694444,3.4482 C3.94477778,4.074 3.62627778,4.9938 3.56994444,6.2916 L12.3861111,6.2832 C12.3861111,6.2832 12.6179444,6.2874 12.6417778,6.5058 C12.6504444,6.5982 12.9451111,8.2614 12.3774444,10.1871" id="path3029"></path>
            </g>
            <g id="g3031" transform="translate(39.000000, 50.000000) scale(-1, 1) rotate(-180.000000) translate(-39.000000, -50.000000) translate(33.000000, 43.000000)" fill="#FFFFFF" fill-rule="nonzero">
                <path d="M4.23529412,2.8 C3.89858824,3.0667 3.852,3.1339 3.73764706,3.3061 C3.56823529,3.5686 3.48141176,3.9424 3.48141176,4.417 C3.48141176,5.1688 3.73129412,5.7085 4.25011765,6.0718 C4.24376471,6.0697 4.99129412,6.7123 6.74894118,6.6892 C7.98352941,6.6724 9.08682353,6.4918 9.08682353,6.4918 L9.08682353,2.6068 L9.08894118,2.6068 C9.08894118,2.6068 7.99411765,2.3737 6.76164706,2.3002 C5.00823529,2.1952 4.22894118,2.8021 4.23529412,2.8 M7.66376471,8.8039 C7.31435294,8.8291 6.86117647,8.8438 6.31905882,8.8438 C5.58,8.8438 4.86635294,8.7514 4.19717647,8.5729 C3.52376471,8.3944 2.91811765,8.1151 2.39717647,7.7455 C1.87411765,7.3738 1.45270588,6.8992 1.14776471,6.3364 C0.842823529,5.7736 0.688235294,5.11 0.688235294,4.3666 C0.688235294,3.6106 0.819529412,2.9533 1.08211765,2.4157 C1.34470588,1.876 1.72376471,1.4266 2.20658824,1.0801 C2.68517647,0.7336 3.276,0.4795 3.96211765,0.3262 C4.63764706,0.1729 5.40423529,0.0952 6.24282353,0.0952 C7.12588235,0.0952 8.00682353,0.1666 8.86023529,0.3115 C9.70517647,0.4543 10.7428235,0.6622 11.0308235,0.7273 C11.3167059,0.7945 11.6343529,0.8806 11.6343529,0.8806 C11.8482353,0.9331 11.8312941,1.1599 11.8312941,1.1599 L11.8270588,8.974 C11.8270588,10.6876 11.3654118,11.9581 10.4569412,12.7456 C9.55270588,13.531 8.22070588,13.9279 6.49905882,13.9279 C5.85317647,13.9279 4.81341176,13.8397 4.19082353,13.7158 C4.19082353,13.7158 2.30823529,13.3546 1.53317647,12.754 C1.53317647,12.754 1.36376471,12.649 1.45694118,12.4138 L2.06682353,10.7884 C2.14305882,10.5784 2.34847059,10.6498 2.34847059,10.6498 C2.34847059,10.6498 2.41411765,10.675 2.49035294,10.7191 C4.14847059,11.6137 6.24494118,11.5864 6.24494118,11.5864 C7.17670588,11.5864 7.89247059,11.4016 8.37529412,11.0341 C8.84541176,10.6771 9.08470588,10.1374 9.08470588,8.9992 L9.08470588,8.638 C8.34352941,8.743 7.66376471,8.8039 7.66376471,8.8039" id="path3033"></path>
            </g>
            <g id="g3035" transform="translate(107.500000, 50.000000) scale(-1, 1) rotate(-180.000000) translate(-107.500000, -50.000000) translate(103.000000, 43.000000)" fill="#FFFFFF">
                <path d="M8.30769231,13.3 C8.37207692,13.4932 8.23707692,13.5856 8.181,13.6066 C8.03769231,13.6633 7.31907692,13.8166 6.76453846,13.8523 C5.70323077,13.9174 5.11338462,13.7368 4.58584615,13.4974 C4.06246154,13.258 3.48092308,12.8716 3.15692308,12.4327 L3.15692308,13.4722 C3.15692308,13.6171 3.05515385,13.7326 2.91392308,13.7326 L0.747692308,13.7326 C0.606461538,13.7326 0.504692308,13.6171 0.504692308,13.4722 L0.504692308,0.7273 C0.504692308,0.5845 0.621,0.4669 0.762230769,0.4669 L2.98246154,0.4669 C3.12369231,0.4669 3.23792308,0.5845 3.23792308,0.7273 L3.23792308,7.0945 C3.23792308,7.9492 3.33138462,8.8018 3.51830769,9.3373 C3.70107692,9.8665 3.95030769,10.2907 4.25769231,10.5952 C4.56715385,10.8976 4.91815385,11.1097 5.30238462,11.2294 C5.69492308,11.3512 6.129,11.3911 6.43638462,11.3911 C6.87876923,11.3911 7.36476923,11.2756 7.36476923,11.2756 C7.52676923,11.2567 7.61815385,11.3575 7.67215385,11.5066 C7.81753846,11.8972 8.22876923,13.0669 8.30769231,13.3" id="path3037"></path>
            </g>
            <g id="g3039" transform="translate(83.000000, 51.000000) scale(-1, 1) rotate(-180.000000) translate(-83.000000, -51.000000) translate(75.000000, 38.000000)" fill="#FFFFFF">
                <path d="M15.3043478,25.2972973 C15.0330435,25.3816216 14.7867826,25.4385405 14.4653913,25.4996757 C14.1398261,25.5587027 13.7516522,25.5882162 13.3113043,25.5882162 C11.7753043,25.5882162 10.5648696,25.1497297 9.71547826,24.2854054 C8.87026087,23.4252973 8.29634783,22.1161622 8.00834783,20.3938378 L7.904,19.8141081 L5.97565217,19.8141081 C5.97565217,19.8141081 5.74191304,19.8225405 5.69182609,19.5653514 L5.37669565,17.7797838 C5.35373913,17.6111351 5.42678261,17.5036216 5.65217391,17.5036216 L7.52834783,17.5036216 L5.62504348,6.76913514 C5.47686957,5.90481081 5.30573913,5.19437838 5.11582609,4.6547027 C4.93008696,4.12345946 4.74852174,3.72502703 4.52313043,3.43410811 C4.30608696,3.15583784 4.10156522,2.94924324 3.74678261,2.82908108 C3.4546087,2.73 3.11652174,2.68362162 2.74713043,2.68362162 C2.5426087,2.68362162 2.26921739,2.71735135 2.06678261,2.75951351 C1.86643478,2.79956757 1.76,2.84383784 1.60765217,2.90918919 C1.60765217,2.90918919 1.38852174,2.99351351 1.30086957,2.77216216 C1.232,2.58875676 0.731130435,1.19951351 0.670608696,1.02875676 C0.612173913,0.858 0.695652174,0.725189189 0.802086957,0.685135135 C1.05252174,0.596594595 1.23826087,0.537567568 1.57843478,0.455351351 C2.05008696,0.343621622 2.44869565,0.337297297 2.82226087,0.337297297 C3.60278261,0.337297297 4.31652174,0.449027027 4.90713043,0.664054054 C5.49982609,0.881189189 6.0173913,1.25854054 6.47652174,1.7687027 C6.97113043,2.32102703 7.28208696,2.89864865 7.57843478,3.68918919 C7.87269565,4.46918919 8.12521739,5.43891892 8.32556522,6.56886486 L10.2393043,17.5036216 L13.0358261,17.5036216 C13.0358261,17.5036216 13.2716522,17.4951892 13.3196522,17.7544865 L13.6368696,19.5379459 C13.6577391,19.7087027 13.5867826,19.8141081 13.3593043,19.8141081 L10.6441739,19.8141081 C10.6587826,19.8752432 10.781913,20.8407568 11.0928696,21.7493514 C11.2264348,22.1351351 11.4768696,22.4492432 11.6876522,22.6642703 C11.8963478,22.8750811 12.1363478,23.0247568 12.3993043,23.1111892 C12.6685217,23.1997297 12.9753043,23.2418919 13.3113043,23.2418919 C13.565913,23.2418919 13.8184348,23.2123784 14.0083478,23.1723243 C14.2713043,23.1154054 14.3735652,23.0858919 14.4424348,23.0648108 C14.72,22.9804865 14.7575652,23.0627027 14.8118261,23.1976216 L15.4608696,24.9979459 C15.5276522,25.1918919 15.3627826,25.2741081 15.3043478,25.2972973" id="path3041"></path>
            </g>
            <g id="g3043" transform="translate(49.500000, 47.000000) scale(-1, 1) rotate(-180.000000) translate(-49.500000, -47.000000) translate(48.000000, 37.000000)" fill="#FFFFFF">
                <path d="M3,0.714285714 C3,0.568571429 2.88975,0.450714286 2.73675,0.450714286 L0.309,0.450714286 C0.156,0.450714286 0.048,0.568571429 0.048,0.714285714 L0.048,19.3228571 C0.048,19.4685714 0.156,19.5864286 0.309,19.5864286 L2.73675,19.5864286 C2.88975,19.5864286 3,19.4685714 3,19.3228571 L3,0.714285714 Z" id="path3045"></path>
            </g>
        </g>
    </g>
</svg>