<?xml version="1.0" encoding="UTF-8"?>
<svg width="315px" height="160px" viewBox="0 0 315 160" version="1.1" xmlns="http://www.w3.org/2000/svg" xmlns:xlink="http://www.w3.org/1999/xlink">
    <!-- Generator: Sketch 59.1 (86144) - https://sketch.com -->
    <title>Artboard</title>
    <desc>Created with Sketch.</desc>
    <g id="Artboard" stroke="none" stroke-width="1" fill="none" fill-rule="evenodd">
        <g id="slack" transform="translate(60.000000, 55.000000)" fill-rule="nonzero">
            <path d="M62.7,39 L65.1,33.3 C67.8975207,35.2995243 71.2617396,36.3508427 74.7,36.3 C77.3,36.3 78.9,35.3 78.9,33.8 C78.9,29.6 63.5,32.9 63.4,22.4 C63.4,17.1 68.1,13 74.8,13 C78.8,13 82.8,14 85.6,16.2 L83.3,22 C80.6593562,20.2405768 77.5723423,19.2693814 74.4,19.2 C72.3,19.2 70.9,20.2 70.9,21.4 C70.9,25.5 86.4,23.3 86.5,33.3 C86.5,38.7 81.9,42.6 75.3,42.6 C70.8296166,42.7251593 66.4294866,41.4679793 62.7,39" id="Path" fill="#000000"></path>
            <path d="M156.6,31.2 C154.90204,34.2137614 151.281455,35.5681533 148.022383,34.4087227 C144.763312,33.2492922 142.811625,29.9125371 143.398595,26.5035355 C143.985564,23.0945338 146.940836,20.6026698 150.4,20.6 C152.948806,20.6519243 155.291411,22.0121469 156.6,24.2 L163.3,20.5 C159.787142,14.2082603 152.251203,11.363969 145.457208,13.7655906 C138.663213,16.1672121 134.588915,23.1156268 135.810521,30.2173052 C137.032127,37.3189837 143.194022,42.5066044 150.4,42.5 C155.77471,42.5476403 160.736673,39.6243131 163.3,34.9 L156.6,31.2 Z" id="Path" fill="#000000"></path>
            <rect id="Rectangle" fill="#000000" x="90" y="0.7" width="8.4" height="41.3"></rect>
            <polygon id="Path" fill="#000000" points="166.6 0.7 166.6 42 175.1 42 175.1 29.6 185.1 42 195.9 42 183.2 27.3 195 13.6 184.6 13.6 175.1 25 175.1 0.7"></polygon>
            <path d="M123.6,31.3 C122.148549,33.5243271 119.655597,34.8463473 117,34.8 C113.078778,34.8 109.9,31.6212217 109.9,27.7 C109.9,23.7787783 113.078778,20.6 117,20.6 C119.665182,20.614644 122.144755,21.9671385 123.6,24.2 L123.6,31.3 Z M123.6,13.6 L123.6,17 C122.2,14.7 118.8,13.1 115.2,13.1 C107.8,13.1 101.9,19.7 101.9,27.9 C101.9,36.1 107.7,42.7 115.2,42.7 C118.8,42.7 122.2,41.1 123.6,38.8 L123.6,42.2 L132,42.2 L132,13.6 L123.6,13.6 Z" id="Shape" fill="#000000"></path>
            <path d="M10.5,31.3 C10.5107584,32.6823958 9.96635829,34.0112962 8.98882725,34.9888272 C8.0112962,35.9663583 6.6823958,36.5107584 5.3,36.5 C3.4422189,36.5000001 1.72555834,35.5088857 0.796667771,33.9 C-0.132222797,32.2911144 -0.132222797,30.3088856 0.796667771,28.7 C1.72555834,27.0911143 3.4422189,26.1 5.3,26.1 L10.5,26.1 L10.5,31.3 Z" id="Path" fill="#E01E5A"></path>
            <path d="M13.1,31.3 C13.1,28.4281193 15.4281193,26.1 18.3,26.1 C21.1718807,26.1 23.5,28.4281193 23.5,31.3 L23.5,44.3 C23.5,47.1718807 21.1718807,49.5 18.3,49.5 C15.4281193,49.5 13.1,47.1718807 13.1,44.3 L13.1,31.3 Z" id="Path" fill="#E01E5A"></path>
            <path d="M18.3,10.4 C16.9176042,10.4107584 15.5887038,9.86635829 14.6111728,8.88882725 C13.6336417,7.9112962 13.0892416,6.5823958 13.1,5.2 C13.1,2.3281193 15.4281193,0 18.3,0 C21.1718807,0 23.5,2.3281193 23.5,5.2 L23.5,10.4 L18.3,10.4 Z" id="Path" fill="#36C5F0"></path>
            <path d="M18.3,13 C21.1718807,13 23.5,15.3281193 23.5,18.2 C23.5,21.0718807 21.1718807,23.4 18.3,23.4 L5.2,23.4 C2.3281193,23.4 0,21.0718807 0,18.2 C0,15.3281193 2.3281193,13 5.2,13 L18.3,13 Z" id="Path" fill="#36C5F0"></path>
            <path d="M39.2,18.2 C39.2,15.3281193 41.5281193,13 44.4,13 C47.2718807,13 49.6,15.3281193 49.6,18.2 C49.6,21.0718807 47.2718807,23.4 44.4,23.4 L39.2,23.4 L39.2,18.2 Z" id="Path" fill="#2EB67D"></path>
            <path d="M36.6,18.2 C36.6,20.0577811 35.6088857,21.7744417 34,22.7033322 C32.3911144,23.6322228 30.4088856,23.6322228 28.8,22.7033322 C27.1911143,21.7744417 26.2,20.0577811 26.2,18.2 L26.2,5.2 C26.2,3.3422189 27.1911143,1.62555834 28.8,0.696667771 C30.4088856,-0.232222797 32.3911144,-0.232222797 34,0.696667771 C35.6088857,1.62555834 36.6,3.3422189 36.6,5.2 L36.6,18.2 Z" id="Path" fill="#2EB67D"></path>
            <path d="M31.3,39.1 C34.1718807,39.1 36.5,41.4281193 36.5,44.3 C36.5,47.1718807 34.1718807,49.5 31.3,49.5 C28.4281193,49.5 26.1,47.1718807 26.1,44.3 L26.1,39.1 L31.3,39.1 Z" id="Path" fill="#ECB22E"></path>
            <path d="M31.3,36.5 C28.4281193,36.5 26.1,34.1718807 26.1,31.3 C26.1,28.4281193 28.4281193,26.1 31.3,26.1 L44.4,26.1 C47.2718807,26.1 49.6,28.4281193 49.6,31.3 C49.6,34.1718807 47.2718807,36.5 44.4,36.5 L31.3,36.5 Z" id="Path" fill="#ECB22E"></path>
        </g>
    </g>
</svg>