<?xml version="1.0" encoding="UTF-8"?>
<svg width="315px" height="160px" viewBox="0 0 315 160" version="1.1" xmlns="http://www.w3.org/2000/svg" xmlns:xlink="http://www.w3.org/1999/xlink">
    <!-- Generator: Sketch 59.1 (86144) - https://sketch.com -->
    <title>Artboard</title>
    <desc>Created with Sketch.</desc>
    <g id="Artboard" stroke="none" stroke-width="1" fill="none" fill-rule="evenodd">
        <g id="USC" transform="translate(85.000000, 43.000000)" fill-rule="nonzero">
            <path d="M4.58519901,5.31304348 C4.58519901,3.50434783 4.13786252,2.71304348 2.79585305,2.71304348 L0.447336489,2.71304348 C0.111834122,2.71304348 0,2.6 0,2.26086957 L0,1.0173913 C0,0.67826087 0.111834122,0.565217391 0.559170611,0.565217391 C1.11834122,0.565217391 3.57869191,0.67826087 8.49939328,0.67826087 C12.860924,0.67826087 15.3212747,0.565217391 15.9922795,0.565217391 C16.3277818,0.565217391 16.439616,0.67826087 16.439616,0.904347826 L16.439616,2.26086957 C16.439616,2.6 16.3277818,2.71304348 15.9922795,2.71304348 L13.8674311,2.71304348 C12.3017534,2.71304348 11.4070805,3.6173913 11.2952463,4.74782609 C11.2952463,5.42608696 11.1834122,8.47826087 11.1834122,11.5304348 L11.1834122,18.0869565 C11.1834122,20.6869565 11.1834122,24.4173913 11.2952463,26.1130435 C11.4070805,28.4869565 11.8544169,30.973913 13.0845923,32.6695652 C14.8739382,35.0434783 17.6697913,35.9478261 20.130142,35.9478261 C22.4786585,35.9478261 25.3863457,35.0434783 27.0638576,33.4608696 C29.0768718,31.3130435 30.0833789,28.373913 30.0833789,24.5304348 L30.0833789,15.1478261 C30.0833789,10.9652174 29.6360424,6.33043478 29.5242082,5.08695652 C29.4123741,3.73043478 28.5177011,2.82608696 27.3993599,2.82608696 L25.610014,2.82608696 C25.2745116,2.82608696 25.1626775,2.71304348 25.1626775,2.48695652 L25.1626775,1.13043478 C25.0508434,0.791304348 25.1626775,0.791304348 25.610014,0.791304348 C26.1691846,0.791304348 28.5177011,0.904347826 31.9845589,0.904347826 C35.1159143,0.791304348 36.7934262,0.791304348 37.1289285,0.791304348 C37.576265,0.791304348 37.6880992,0.904347826 37.6880992,1.24347826 L37.6880992,2.48695652 C37.6880992,2.82608696 37.6880992,2.93913043 37.3525968,2.93913043 L35.4514167,2.93913043 C33.5502366,2.93913043 33.3265684,4.40869565 33.3265684,4.97391304 C33.2147343,5.65217391 33.2147343,13 33.2147343,13.6782609 C33.3265684,14.3565217 33.2147343,23.4 32.8792319,25.6608696 C32.5437295,29.9565217 31.3135542,33.2347826 28.5177011,35.7217391 C26.3928528,37.7565217 23.0378292,39 19.1236349,39 C16.6632842,39 13.6437629,38.5478261 11.6307487,37.7565217 C8.6112274,36.5130435 6.59821321,34.1391304 5.47987198,30.7478261 C4.69703313,28.4869565 4.58519901,24.9826087 4.58519901,18.0869565 L4.58519901,5.31304348 Z M39.2537769,26.226087 C39.4774451,26.226087 39.5892792,26.3391304 39.5892792,26.6782609 C39.5892792,28.373913 40.1484498,30.1826087 41.4904593,32.5565217 C43.056137,35.0434783 45.740156,36.2869565 48.3123408,36.2869565 C51.1081938,36.2869565 55.0223881,34.4782609 55.0223881,30.1826087 C55.0223881,25.3217391 52.8975398,23.7391304 47.3058337,21.7043478 C45.740156,21.1391304 42.3851323,19.5565217 39.8129475,17.2956522 C37.9117674,15.6 37.1289285,13 37.1289285,9.83478261 C37.1289285,6.89565217 38.2472698,4.52173913 40.7076205,2.48695652 C42.8324688,0.67826087 45.0691512,0 48.0886725,0 C51.5555303,0 53.5685445,0.791304348 54.5750516,1.24347826 C55.1342222,1.46956522 55.3578905,1.35652174 55.6933928,1.13043478 L56.3643976,0.452173913 C56.5880658,0.226086957 56.811734,0.113043478 57.0354023,0.113043478 C57.3709047,0.113043478 57.4827388,0.452173913 57.4827388,0.904347826 C57.4827388,1.69565217 58.2655776,9.04347826 58.2655776,9.60869565 C58.2655776,9.83478261 58.1537435,9.94782609 57.9300753,9.94782609 L57.1472364,10.173913 C56.9235682,10.173913 56.6998999,10.173913 56.5880658,9.83478261 C56.0288952,8.36521739 55.2460563,6.2173913 53.3448763,4.29565217 C52.0028668,2.82608696 50.325355,2.14782609 47.9768384,2.14782609 C43.8389759,2.14782609 42.161464,5.53913043 42.161464,7.46086957 C42.161464,9.26956522 42.3851323,10.8521739 43.6153076,12.2086957 C44.9573171,13.5652174 47.8650043,14.8086957 49.9898526,15.4869565 C53.0093739,16.3913043 55.4697246,17.5217391 57.4827388,19.5565217 C59.1602506,21.3652174 60.0549236,23.5130435 60.0549236,27.0173913 C60.0549236,33.4608696 55.9170611,38.6608696 49.0951796,38.6608696 C44.845483,38.6608696 42.3851323,37.7565217 40.260284,36.173913 C39.5892792,35.8347826 39.365611,35.6086957 39.0301086,35.6086957 C38.6946063,35.6086957 38.470938,36.0608696 38.2472698,36.5130435 C37.9117674,36.9652174 37.6880992,37.1913043 37.3525968,37.1913043 C37.0170944,37.1913043 36.7934262,36.7391304 36.7934262,36.4 C36.9052603,35.7217391 37.576265,27.2434783 37.6880992,26.6782609 C37.6880992,26.3391304 37.7999333,26.226087 38.0236015,26.226087 L39.2537769,26.226087 Z M95.8418427,29.2782609 C95.9536768,29.3913043 96.0655109,29.6173913 95.9536768,29.8434783 C92.8223214,34.3652174 87.90162,38.6608696 80.5205679,38.6608696 C73.9223547,38.6608696 70.1199946,36.626087 66.876805,33.6869565 C63.0744449,30.1826087 61.2850989,24.1913043 61.2850989,19.5565217 C61.2850989,14.4695652 62.9626108,9.49565217 66.5413027,5.53913043 C69.3371557,2.48695652 73.8105206,7.10542736e-15 80.0732314,7.10542736e-15 C84.8820987,7.10542736e-15 88.6844589,1.46956522 90.5856389,2.48695652 C91.2566437,2.93913043 91.4803119,2.93913043 91.592146,2.48695652 L92.0394825,1.13043478 C92.1513166,0.791304348 92.2631508,0.791304348 92.8223214,0.791304348 C93.4933261,0.791304348 93.4933261,0.904347826 93.4933261,1.5826087 C93.4933261,2.48695652 94.4998332,10.9652174 94.7235014,12.5478261 C94.7235014,12.8869565 94.7235014,13 94.4998332,13.1130435 L93.4933261,13.4521739 C93.2696579,13.5652174 93.0459896,13.3391304 92.9341555,12.8869565 C92.2631508,10.9652174 91.0329754,8.36521739 88.9081271,6.10434783 C86.6714447,3.95652174 83.8755916,2.26086957 79.8495632,2.26086957 C71.5738382,2.26086957 68.1069804,9.83478261 68.1069804,17.5217391 C68.1069804,20.8 69.0016534,26.9043478 72.9158476,31.2 C76.3827054,34.8173913 79.4022267,35.2695652 81.8625774,35.2695652 C87.5661176,35.2695652 92.0394825,32.3304348 94.276165,29.1652174 C94.4998332,28.826087 94.7235014,28.6 94.9471697,28.826087 L95.8418427,29.2782609 Z" id="Shape" fill="#A32035"></path>
            <path d="M7.5,55.6193772 C6.15,55.0657439 5.475,54.2906574 5.25,53.0726644 C5.025,52.1868512 4.9125,50.9688581 4.9125,48.4221453 L4.9125,43.8823529 C4.9125,43.2179931 4.8,42.8858131 4.125,42.8858131 L3.1125,42.8858131 C3,42.8858131 3,42.8858131 3,42.6643599 L3,42.3321799 C3,42.2214533 3,42.2214533 3.225,42.2214533 C3.45,42.2214533 4.35,42.3321799 5.925,42.3321799 C7.3875,42.3321799 8.4,42.2214533 8.625,42.2214533 C8.7375,42.2214533 8.85,42.2214533 8.85,42.3321799 L8.85,42.7750865 C8.85,42.8858131 8.85,42.8858131 8.7375,42.8858131 L7.725,42.8858131 C7.1625,42.8858131 6.825,43.2179931 6.825,43.6608997 C6.825,43.8823529 6.825,45.2110727 6.825,46.0968858 L6.825,47.3148789 C6.825,48.3114187 6.9375,50.7474048 6.9375,51.3010381 C6.9375,52.1868512 7.1625,53.0726644 7.6125,53.7370242 C8.2875,54.733564 9.525,55.0657439 10.65,55.0657439 C11.775,55.0657439 12.9,54.733564 13.575,54.0692042 C14.3625,53.2941176 14.5875,52.0761246 14.5875,50.7474048 L14.5875,46.650519 C14.5875,45.2110727 14.5875,44.1038062 14.475,43.6608997 C14.3625,43.2179931 14.1375,42.7750865 13.575,42.7750865 L12.3375,42.7750865 C12.225,42.7750865 12.225,42.6643599 12.225,42.6643599 L12.225,42.2214533 C12.225,42.1107266 12.225,42.1107266 12.3375,42.1107266 C12.5625,42.1107266 13.4625,42.2214533 14.7,42.2214533 C16.05,42.2214533 16.6125,42.1107266 16.8375,42.1107266 C17.0625,42.1107266 17.0625,42.2214533 17.0625,42.2214533 L17.0625,42.6643599 C17.0625,42.7750865 17.0625,42.8858131 16.95,42.8858131 L16.1625,42.8858131 C15.4875,42.8858131 15.4875,43.4394464 15.4875,43.6608997 C15.4875,43.8823529 15.4875,46.5397924 15.4875,46.8719723 C15.4875,47.0934256 15.4875,50.4152249 15.375,51.1903114 C15.2625,52.7404844 14.8125,53.9584775 13.8,54.8442907 C13.0125,55.5086505 11.8875,55.9515571 10.2,55.9515571 C8.9625,55.9515571 8.0625,55.8408304 7.5,55.6193772 M23.925,54.733564 C23.925,55.0657439 24.15,55.1764706 24.375,55.1764706 L24.9375,55.1764706 C25.1625,55.1764706 25.1625,55.2871972 25.1625,55.3979239 L25.1625,55.6193772 C25.1625,55.7301038 25.1625,55.8408304 25.05,55.8408304 C24.9375,55.8408304 24.2625,55.7301038 23.25,55.7301038 C22.2375,55.7301038 21.675,55.8408304 21.5625,55.8408304 C21.45,55.8408304 21.45,55.7301038 21.45,55.6193772 L21.45,55.3979239 C21.45,55.2871972 21.5625,55.1764706 21.675,55.1764706 L22.2375,55.1764706 C22.4625,55.1764706 22.575,55.0657439 22.575,54.733564 C22.575,54.2906574 22.575,53.6262976 22.575,53.183391 L22.575,50.6366782 C22.575,49.8615917 22.575,49.3079585 22.0125,48.9757785 C21.5625,48.6435986 21.1125,48.6435986 20.55,48.6435986 C20.2125,48.6435986 19.5375,48.7543253 18.975,49.4186851 C18.6375,49.8615917 18.525,50.3044983 18.525,50.7474048 L18.525,54.733564 C18.525,55.2871972 18.6375,55.3979239 18.975,55.3979239 L19.425,55.3979239 C19.5375,55.3979239 19.65,55.5086505 19.65,55.6193772 L19.65,55.9515571 C19.65,56.0622837 19.65,56.1730104 19.5375,56.1730104 C19.425,56.1730104 18.8625,56.0622837 17.85,56.0622837 C16.8375,56.0622837 16.275,56.1730104 16.1625,56.1730104 C16.05,56.1730104 16.05,56.0622837 16.05,55.9515571 L16.05,55.3979239 C16.05,55.2871972 16.05,55.1764706 16.275,55.1764706 L16.8375,55.1764706 C17.0625,55.1764706 17.175,55.0657439 17.175,54.8442907 L17.175,50.4152249 C17.175,49.8615917 16.8375,49.5294118 16.3875,49.3079585 L16.275,49.1972318 C16.1625,48.9757785 16.1625,48.9757785 16.1625,48.9757785 L16.1625,48.8650519 C16.1625,48.7543253 16.275,48.7543253 16.3875,48.6435986 L18.075,47.7577855 C18.1875,47.6470588 18.3,47.6470588 18.4125,47.6470588 C18.525,47.6470588 18.525,47.7577855 18.525,47.8685121 L18.6375,48.9757785 C19.2,48.3114187 20.325,47.5363322 21.3375,47.5363322 C21.9,47.5363322 22.4625,47.6470588 23.025,47.9792388 C23.5875,48.3114187 24.0375,49.3079585 24.0375,49.7508651 L24.0375,54.733564 L23.925,54.733564 Z M26.2875,44.3252595 C26.2875,43.9930796 26.7375,43.4394464 27.4125,43.4394464 C28.0875,43.4394464 28.425,43.9930796 28.425,44.3252595 C28.425,44.7681661 28.0875,45.3217993 27.3,45.3217993 C26.9625,45.432526 26.2875,45.100346 26.2875,44.3252595 Z M27.3,50.3044983 C27.3,49.6401384 27.1875,49.3079585 26.175,49.1972318 C26.0625,49.1972318 25.8375,48.9757785 25.8375,48.9757785 L25.8375,48.7543253 C25.8375,48.6435986 25.8375,48.6435986 25.95,48.6435986 C26.625,48.4221453 27.3,48.0899654 28.0875,47.8685121 C28.2,47.7577855 28.3125,47.7577855 28.425,47.7577855 C28.5375,47.6470588 28.5375,47.8685121 28.5375,47.8685121 C28.5375,48.200692 28.5375,49.4186851 28.5375,50.9688581 L28.5375,53.0726644 C28.5375,53.8477509 28.5375,54.5121107 28.5375,54.733564 C28.5375,55.0657439 28.65,55.1764706 28.875,55.1764706 L29.775,55.1764706 C29.8875,55.1764706 30,55.1764706 30,55.3979239 L30,55.7301038 C30,55.8408304 30,55.9515571 29.775,55.9515571 C29.6625,55.9515571 28.7625,55.8408304 27.975,55.8408304 C26.85,55.8408304 26.0625,55.9515571 25.8375,55.9515571 C25.725,55.9515571 25.725,55.9515571 25.725,55.8408304 L25.725,55.6193772 C25.725,55.5086505 25.8375,55.5086505 25.95,55.5086505 L26.85,55.5086505 C27.075,55.5086505 27.1875,55.3979239 27.1875,55.1764706 C27.1875,54.6228374 27.1875,54.0692042 27.1875,53.4048443 L27.1875,50.3044983 L27.3,50.3044983 Z M34.05,53.9584775 C34.5,53.183391 35.7375,50.083045 35.9625,49.1972318 C36.075,48.6435986 35.9625,48.4221453 35.625,48.4221453 L35.2875,48.4221453 C35.175,48.4221453 35.175,48.3114187 35.175,48.200692 L35.175,47.8685121 C35.175,47.8685121 35.175,47.8685121 35.4,47.8685121 C35.5125,47.8685121 35.9625,47.8685121 36.8625,47.8685121 C37.65,47.8685121 38.1,47.8685121 38.2125,47.8685121 C38.325,47.8685121 38.4375,47.8685121 38.4375,48.0899654 L38.4375,48.4221453 C38.4375,48.532872 38.4375,48.6435986 38.325,48.6435986 L37.9875,48.6435986 C37.7625,48.6435986 37.5375,48.6435986 37.425,48.8650519 C37.0875,48.9757785 36.3,51.1903114 35.9625,51.7439446 C35.7375,52.2975779 34.1625,55.6193772 34.1625,55.6193772 C34.05,55.8408304 33.9375,56.0622837 33.7125,56.0622837 C33.4875,56.0622837 33.4875,55.8408304 33.375,55.6193772 C33.375,55.5086505 31.9125,51.9653979 31.9125,51.7439446 C31.8,51.633218 31.0125,49.4186851 30.9,49.0865052 C30.675,48.6435986 30.3375,48.4221453 30.1125,48.4221453 L29.775,48.4221453 C29.6625,48.4221453 29.6625,48.3114187 29.6625,48.200692 L29.6625,47.8685121 C29.55,47.8685121 29.55,47.8685121 29.8875,47.8685121 C30.225,47.8685121 30.45,47.8685121 31.4625,47.8685121 C32.475,47.8685121 33.0375,47.8685121 33.15,47.8685121 C33.2625,47.8685121 33.375,47.8685121 33.375,47.8685121 L33.375,48.200692 C33.375,48.3114187 33.375,48.4221453 33.2625,48.4221453 L32.7,48.4221453 C32.3625,48.4221453 32.3625,48.6435986 32.3625,48.7543253 C32.3625,49.0865052 32.8125,50.6366782 32.925,50.9688581 C32.925,51.4117647 33.9375,53.6262976 34.05,53.9584775 M42.4875,50.083045 C42.7125,50.083045 43.05,50.083045 43.05,49.8615917 C43.05,49.4186851 42.825,48.200692 41.5875,48.200692 C40.6875,48.200692 39.9,48.7543253 39.5625,50.1937716 L42.4875,50.1937716 L42.4875,50.083045 Z M39.3375,50.6366782 C39.3375,50.9688581 39.1125,51.1903114 39.1125,51.5224913 C39.1125,53.4048443 40.35,54.8442907 41.8125,54.8442907 C42.9375,54.8442907 43.8375,54.1799308 44.175,53.5155709 C44.175,53.4048443 44.4,53.4048443 44.5125,53.4048443 L44.7375,53.6262976 C44.7375,53.6262976 44.7375,53.6262976 44.7375,53.9584775 C44.4,54.733564 43.3875,55.9515571 41.5875,55.9515571 C40.4625,55.9515571 39.225,55.6193772 38.55,54.6228374 C37.9875,53.6262976 37.7625,53.0726644 37.7625,51.7439446 C37.7625,50.9688581 37.9875,49.7508651 39,48.7543253 C39.675,47.8685121 40.8,47.6470588 41.7,47.6470588 C43.95,47.6470588 44.5125,49.7508651 44.5125,50.4152249 C44.5125,50.6366782 44.2875,50.7474048 43.95,50.7474048 L39.3375,50.7474048 L39.3375,50.6366782 Z M46.2,50.6366782 C46.2,49.6401384 46.0875,49.5294118 45.525,49.1972318 L45.3,48.9757785 C45.075,48.9757785 45.075,48.9757785 45.075,48.9757785 L45.075,48.8650519 C45.075,48.7543253 45.075,48.7543253 45.1875,48.6435986 L47.1,47.6470588 C47.2125,47.5363322 47.325,47.5363322 47.325,47.5363322 C47.4375,47.5363322 47.4375,47.6470588 47.4375,47.7577855 L47.55,48.9757785 L47.6625,48.9757785 C48.225,48.0899654 49.125,47.3148789 50.025,47.3148789 C50.7,47.3148789 51.0375,47.7577855 51.0375,48.200692 C51.0375,48.7543253 50.5875,49.0865052 50.25,49.0865052 C50.025,49.0865052 49.8,48.9757785 49.6875,48.9757785 C49.575,48.9757785 49.4625,48.9757785 49.0125,48.9757785 C48.675,48.9757785 48.225,49.1972318 47.8875,49.7508651 C47.775,49.9723183 47.6625,50.3044983 47.6625,50.3044983 L47.6625,54.2906574 C47.6625,54.8442907 47.775,55.0657439 48.225,55.0657439 L49.2375,55.0657439 C49.2375,55.0657439 49.2375,55.0657439 49.2375,55.2871972 L49.2375,55.6193772 C49.2375,55.6193772 49.2375,55.8408304 49.2375,55.8408304 C49.0125,55.8408304 48.1125,55.6193772 47.2125,55.6193772 C45.8625,55.6193772 45.075,55.8408304 44.9625,55.8408304 C44.85,55.8408304 44.9625,55.8408304 44.9625,55.6193772 L44.9625,55.3979239 C44.9625,55.2871972 44.9625,55.1764706 45.1875,55.1764706 L45.8625,55.1764706 C46.2,55.1764706 46.3125,55.0657439 46.3125,54.8442907 C46.3125,54.1799308 46.3125,53.5155709 46.3125,52.5190311 L46.3125,50.7474048 L46.2,50.7474048 L46.2,50.6366782 Z M51.2625,55.3979239 C51.15,55.2871972 51.15,55.1764706 51.15,55.1764706 L50.925,53.4048443 C50.925,53.2941176 50.925,53.2941176 51.0375,53.2941176 L51.2625,53.183391 C51.375,53.183391 51.375,53.183391 51.4875,53.2941176 L51.9375,54.1799308 C52.275,54.8442907 52.6125,55.3979239 53.625,55.3979239 C54.3,55.3979239 55.2,54.9550173 55.2,54.0692042 C55.2,53.183391 54.75,52.7404844 53.2875,52.2975779 C52.1625,51.9653979 51.0375,51.4117647 51.0375,49.8615917 C51.0375,48.532872 52.275,47.5363322 53.7375,47.5363322 C54.6375,47.5363322 55.2,47.7577855 55.5375,47.9792388 C55.875,48.0899654 55.875,48.200692 55.875,48.3114187 L56.2125,49.6401384 C56.2125,49.7508651 56.2125,49.7508651 56.1,49.8615917 L55.7625,50.083045 C55.65,50.083045 55.65,50.083045 55.5375,49.9723183 L54.8625,48.9757785 C54.6375,48.6435986 54.3,48.200692 53.5125,48.200692 C52.725,48.200692 52.05,48.6435986 52.05,49.4186851 C52.05,50.5259516 52.95,50.7474048 53.85,50.9688581 C55.3125,51.4117647 56.1,51.9653979 56.2125,53.4048443 C56.2125,54.9550173 54.8625,55.9515571 53.2875,55.9515571 C52.3875,55.9515571 51.4875,55.6193772 51.2625,55.3979239 M57.3375,44.3252595 C57.3375,43.8823529 57.7875,43.3287197 58.4625,43.3287197 C59.1375,43.4394464 59.3625,43.9930796 59.3625,44.3252595 C59.3625,44.7681661 59.025,45.3217993 58.2375,45.3217993 C58.0125,45.432526 57.3375,45.100346 57.3375,44.3252595 Z M58.2375,50.3044983 C58.2375,49.6401384 58.125,49.3079585 57.1125,49.1972318 C57,49.1972318 56.8875,49.0865052 56.8875,49.0865052 L56.8875,48.8650519 C56.8875,48.7543253 56.8875,48.7543253 57,48.7543253 C57.45,48.4221453 58.2375,48.0899654 59.1375,47.8685121 C59.1375,47.6470588 59.3625,47.6470588 59.3625,47.6470588 C59.475,47.6470588 59.475,47.7577855 59.475,47.8685121 C59.475,48.200692 59.475,49.4186851 59.475,50.9688581 L59.475,53.0726644 C59.475,53.8477509 59.475,54.5121107 59.475,54.733564 C59.475,55.0657439 59.5875,55.1764706 59.8125,55.1764706 L60.7125,55.1764706 C60.825,55.1764706 60.9375,55.1764706 60.9375,55.3979239 L60.9375,55.7301038 C60.9375,55.8408304 60.9375,55.9515571 60.7125,55.9515571 C60.6,55.9515571 59.7,55.8408304 58.9125,55.8408304 C57.7875,55.8408304 57,55.9515571 56.775,55.9515571 C56.6625,55.9515571 56.6625,55.9515571 56.6625,55.8408304 L56.6625,55.6193772 C56.6625,55.5086505 56.775,55.5086505 56.8875,55.5086505 L57.7875,55.5086505 C58.0125,55.5086505 58.125,55.3979239 58.125,55.1764706 C58.125,54.6228374 58.125,54.0692042 58.125,53.4048443 L58.125,50.3044983 L58.2375,50.3044983 Z M63.525,53.4048443 C63.525,54.8442907 64.2,55.0657439 64.5375,55.0657439 C64.9875,55.0657439 65.55,54.9550173 65.775,54.8442907 C65.8875,54.733564 66,54.8442907 66,54.8442907 L66.1125,55.0657439 C66.225,55.1764706 66.1125,55.1764706 66.1125,55.2871972 C65.8875,55.3979239 64.9875,55.9515571 63.8625,55.9515571 C62.9625,55.9515571 61.95,55.0657439 61.95,54.2906574 C61.95,53.5155709 62.0625,51.8546713 62.0625,51.5224913 L62.0625,51.1903114 C62.0625,50.8581315 62.0625,49.5294118 62.0625,48.7543253 L60.9375,48.7543253 C60.7125,48.7543253 60.6,48.6435986 60.6,48.532872 C60.6,48.4221453 60.7125,48.3114187 60.9375,48.200692 C61.3875,47.9792388 62.85,46.4290657 63.1875,45.7647059 C63.3,45.6539792 63.3,45.5432526 63.4125,45.5432526 C63.525,45.5432526 63.6375,45.6539792 63.6375,45.8754325 L63.525,47.7577855 L66.225,47.7577855 C66.3375,47.7577855 66.45,47.8685121 66.3375,47.9792388 L66.1125,48.6435986 C66.1125,48.7543253 66,48.7543253 65.8875,48.7543253 L63.4125,48.7543253 C63.4125,49.6401384 63.3,50.5259516 63.3,51.4117647 L63.3,53.4048443 L63.525,53.4048443 Z M67.0125,60.0484429 C67.0125,59.6055363 67.4625,59.2733564 67.9125,59.2733564 C68.25,59.2733564 68.5875,59.4948097 68.8125,59.4948097 C68.925,59.4948097 69.15,59.4948097 69.2625,59.384083 C69.4875,58.9411765 70.3875,56.7266436 70.8375,56.1730104 C70.725,55.7301038 68.7,49.7508651 68.5875,49.4186851 C68.3625,48.9757785 68.1375,48.6435986 67.575,48.6435986 L67.2375,48.6435986 C67.125,48.6435986 67.125,48.532872 67.125,48.4221453 L67.125,48.0899654 C67.0125,47.8685121 67.0125,47.8685121 67.2375,47.8685121 C67.4625,47.8685121 67.9125,47.9792388 69.0375,47.9792388 C70.05,48.0899654 70.6125,47.8685121 70.8375,47.8685121 C70.95,47.8685121 71.0625,47.9792388 71.0625,47.9792388 L71.0625,48.4221453 C71.0625,48.532872 71.0625,48.532872 70.95,48.532872 L70.6125,48.532872 C70.3875,48.532872 70.275,48.6435986 70.3875,48.9757785 C70.5,49.4186851 71.7375,53.6262976 71.9625,53.9584775 L72.075,53.9584775 C72.3,53.6262976 73.9875,49.7508651 74.1,49.1972318 C74.2125,48.7543253 74.1,48.4221453 73.7625,48.4221453 L73.425,48.4221453 C73.3125,48.4221453 73.3125,48.3114187 73.3125,48.3114187 L73.3125,47.9792388 C73.3125,47.8685121 73.3125,47.8685121 73.425,47.8685121 C73.65,47.8685121 74.1,47.9792388 75,47.9792388 C75.5625,47.9792388 76.0125,47.8685121 76.125,47.8685121 C76.2375,47.8685121 76.2375,47.9792388 76.2375,47.9792388 L76.2375,48.3114187 C76.2375,48.4221453 76.2375,48.532872 76.125,48.532872 L75.45,48.532872 C75.225,48.532872 75,48.6435986 74.775,48.8650519 C74.325,49.4186851 73.0875,52.2975779 71.7375,55.2871972 C70.8375,57.3910035 70.05,59.1626298 69.7125,59.8269896 C69.4875,60.2698962 69.15,61.1557093 68.025,61.1557093 C67.2375,60.9342561 67.0125,60.6020761 67.0125,60.0484429 M84.5625,51.5224913 C84.5625,49.4186851 82.9875,48.0899654 81.975,48.0899654 C81.4125,48.0899654 80.9625,48.200692 80.5125,48.6435986 C79.725,49.4186851 79.5,50.1937716 79.5,51.633218 C79.5,52.7404844 79.6125,53.4048443 80.2875,54.2906574 C80.7375,54.9550173 81.3,55.2871972 82.2,55.2871972 C83.6625,55.3979239 84.5625,53.6262976 84.5625,51.5224913 M78.9375,54.733564 C78.0375,53.7370242 77.925,52.9619377 77.925,51.633218 C77.925,50.6366782 78.4875,49.4186851 79.6125,48.532872 C80.625,47.7577855 81.525,47.6470588 82.2,47.6470588 C83.2125,47.6470588 84.3375,48.200692 84.9,48.7543253 C85.8,49.6401384 86.25,50.6366782 86.25,51.8546713 C86.25,53.9584775 84.3375,56.0622837 81.975,56.0622837 C80.9625,55.9515571 79.8375,55.6193772 78.9375,54.733564 M88.275,48.7543253 L86.925,48.7543253 C86.8125,48.7543253 86.8125,48.7543253 86.8125,48.532872 L86.8125,47.8685121 C86.8125,47.8685121 87.0375,47.8685121 87.15,47.8685121 L88.275,47.8685121 L88.275,47.5363322 C88.275,45.6539792 88.8375,44.4359862 89.5125,43.550173 C90.525,42.4429066 91.65,42 92.6625,42 C93.5625,42 94.4625,42.3321799 94.4625,43.1072664 C94.4625,43.550173 94.0125,43.8823529 93.675,43.8823529 C93.45,43.8823529 93.3375,43.8823529 93.1125,43.7716263 C92.8875,43.6608997 92.775,43.4394464 92.6625,43.3287197 C92.4375,42.9965398 92.1,42.8858131 91.7625,42.8858131 C91.3125,42.8858131 90.75,42.9965398 90.3,43.550173 C89.625,44.4359862 89.625,46.0968858 89.625,47.4256055 L89.625,47.7577855 L91.9875,47.7577855 C92.1,47.7577855 92.1,47.8685121 92.1,47.9792388 L91.9875,48.6435986 C91.9875,48.7543253 91.875,48.7543253 91.7625,48.7543253 L89.625,48.7543253 L89.625,50.4152249 C89.625,52.6297578 89.625,54.4013841 89.625,54.6228374 C89.625,54.9550173 89.7375,55.0657439 90.075,55.0657439 L91.2,55.0657439 C91.425,55.0657439 91.425,55.0657439 91.425,55.1764706 L91.425,55.5086505 C91.425,55.6193772 91.425,55.7301038 91.3125,55.7301038 C91.2,55.7301038 90.525,55.6193772 88.8375,55.6193772 C87.825,55.6193772 86.8125,55.7301038 86.5875,55.7301038 C86.475,55.7301038 86.475,55.7301038 86.475,55.6193772 L86.475,55.0657439 C86.475,54.9550173 86.475,54.9550173 86.7,54.9550173 L87.6,54.9550173 C87.9375,54.9550173 88.05,54.733564 88.05,54.2906574 L88.05,50.8581315 L88.275,48.7543253 L88.275,48.7543253 Z M5.3625,72.8927336 C5.1375,72.6712803 5.025,72.6712803 4.9125,72.6712803 C4.8,72.6712803 4.6875,72.7820069 4.575,73.0034602 C4.4625,73.2249135 4.35,73.2249135 4.2375,73.2249135 C4.125,73.2249135 4.0125,73.1141869 4.0125,72.8927336 C4.125,72.449827 4.2375,70.0138408 4.35,69.4602076 C4.35,69.349481 4.4625,69.349481 4.4625,69.349481 L4.8,69.349481 C4.9125,69.349481 4.9125,69.349481 4.9125,69.4602076 C4.9125,70.0138408 5.025,70.6782007 5.5875,71.6747405 C6.15,72.5605536 7.275,73.1141869 8.2875,73.1141869 C9.4125,73.1141869 10.875,72.449827 10.875,70.6782007 C10.875,68.6851211 9.4125,68.0207612 7.95,67.467128 C7.3875,67.2456747 5.925,66.8027682 5.1375,65.916955 C4.4625,65.2525952 4.125,64.366782 4.125,63.1487889 C4.125,62.1522491 4.6875,61.266436 5.3625,60.7128028 C6.0375,60.0484429 7.05,59.8269896 8.0625,59.8269896 C9.1875,59.8269896 9.975,60.1591696 10.3125,60.2698962 C10.5375,60.3806228 10.5375,60.3806228 10.65,60.2698962 L10.9875,60.0484429 C11.1,59.9377163 11.1,59.9377163 11.2125,59.9377163 C11.325,59.9377163 11.325,60.0484429 11.325,60.2698962 C11.325,60.9342561 11.55,62.9273356 11.55,63.2595156 C11.55,63.3702422 11.55,63.3702422 11.4375,63.3702422 L11.2125,63.4809689 C10.9875,63.3702422 10.9875,63.3702422 10.9875,63.3702422 C10.9875,62.816609 10.5375,62.0415225 9.8625,61.1557093 C9.3,60.6020761 8.625,60.3806228 7.725,60.3806228 C6.0375,60.3806228 5.3625,61.5986159 5.3625,62.5951557 C5.3625,63.1487889 5.475,63.7024221 5.925,64.2560554 C6.4875,64.8096886 7.6125,65.2525952 8.175,65.3633218 C9.525,65.8062284 10.5375,66.1384083 11.325,66.9134948 C11.775,67.467128 12.225,68.2422145 12.225,69.4602076 C12.225,71.6747405 10.875,73.6678201 8.2875,73.6678201 C7.05,73.7785467 6.2625,73.5570934 5.3625,72.8927336 M19.9875,69.4602076 C19.9875,67.3564014 18.4125,66.0276817 17.4,66.0276817 C16.8375,66.0276817 16.3875,66.1384083 15.9375,66.5813149 C15.15,67.3564014 14.925,68.1314879 14.925,69.5709343 C14.925,70.6782007 15.0375,71.3425606 15.7125,72.2283737 C16.1625,72.8927336 16.725,73.2249135 17.625,73.2249135 C18.975,73.2249135 19.9875,71.4532872 19.9875,69.4602076 M14.3625,72.449827 C13.4625,71.4532872 13.35,70.6782007 13.35,69.349481 C13.35,68.3529412 13.9125,67.1349481 15.0375,66.2491349 C16.05,65.4740484 16.95,65.3633218 17.625,65.3633218 C18.6375,65.3633218 19.7625,65.916955 20.325,66.4705882 C21.225,67.3564014 21.675,68.3529412 21.675,69.5709343 C21.675,71.6747405 19.7625,73.7785467 17.4,73.7785467 C16.5,73.7785467 15.2625,73.5570934 14.3625,72.449827 M29.2125,69.7923875 C29.2125,70.6782007 29.2125,71.6747405 29.2125,72.0069204 C29.325,72.5605536 29.4375,72.6712803 29.6625,72.6712803 C29.775,72.6712803 30.1125,72.6712803 30.3375,72.5605536 C30.45,72.5605536 30.5625,72.5605536 30.5625,72.6712803 L30.675,72.8927336 C30.675,73.0034602 30.675,73.0034602 30.5625,73.1141869 L28.5375,73.7785467 C28.425,73.7785467 28.3125,73.8892734 28.2,73.8892734 C28.0875,73.8892734 28.0875,73.8892734 27.975,73.6678201 L27.8625,72.5605536 C27.3,73.3356401 26.175,73.8892734 25.275,73.8892734 C24.7125,73.8892734 24.15,73.7785467 23.475,73.0034602 C22.6875,72.0069204 22.6875,71.3425606 22.6875,69.2387543 L22.6875,67.0242215 C22.6875,66.4705882 22.35,66.3598616 21.9,66.2491349 C21.5625,66.2491349 21.45,66.2491349 21.45,66.1384083 L21.45,65.8062284 C21.45,65.6955017 21.45,65.6955017 21.675,65.6955017 L23.3625,65.6955017 C23.475,65.6955017 23.5875,65.6955017 23.5875,65.6955017 C23.7,65.6955017 23.7,65.6955017 23.8125,65.6955017 C23.925,65.6955017 24.0375,65.8062284 24.0375,65.916955 C24.0375,66.1384083 23.925,67.0242215 23.925,68.1314879 L23.925,69.4602076 C23.925,70.2352941 23.7,71.4532872 24.375,72.3391003 C24.825,73.0034602 25.3875,73.1141869 25.95,73.1141869 C26.5125,73.1141869 27.3,72.6712803 27.6375,72.1176471 C27.8625,72.0069204 27.8625,71.7854671 27.8625,71.4532872 L27.8625,66.9134948 C27.8625,66.3598616 27.525,66.2491349 27.075,66.2491349 C26.7375,66.2491349 26.625,66.2491349 26.625,66.1384083 L26.625,65.8062284 C26.625,65.6955017 26.625,65.5847751 26.85,65.5847751 L28.65,65.5847751 C28.7625,65.5847751 28.875,65.5847751 28.9875,65.5847751 C29.1,65.5847751 29.2125,65.5847751 29.2125,65.5847751 C29.325,65.5847751 29.4375,65.6955017 29.4375,65.8062284 C29.4375,66.0276817 29.325,66.4705882 29.325,68.3529412 L29.325,69.6816609 L29.2125,69.6816609 L29.2125,69.7923875 Z M32.925,71.2318339 C32.925,72.6712803 33.6,72.8927336 33.9375,72.8927336 C34.3875,72.8927336 34.95,72.7820069 35.175,72.6712803 C35.2875,72.5605536 35.4,72.6712803 35.4,72.6712803 L35.5125,72.8927336 C35.625,73.0034602 35.5125,73.0034602 35.5125,73.1141869 C35.2875,73.3356401 34.5,73.8892734 33.375,73.8892734 C32.475,73.8892734 31.4625,73.0034602 31.4625,72.2283737 C31.4625,71.4532872 31.575,69.7923875 31.575,69.4602076 L31.575,68.9065744 C31.575,68.5743945 31.575,67.2456747 31.575,66.4705882 L30.45,66.4705882 C30.1125,66.4705882 30.1125,66.4705882 30.1125,66.3598616 C30.1125,66.2491349 30.225,66.1384083 30.45,66.0276817 C30.9,65.8062284 32.3625,64.2560554 32.7,63.5916955 C32.8125,63.3702422 32.8125,63.3702422 32.925,63.3702422 C33.0375,63.3702422 33.15,63.4809689 33.15,63.7024221 L32.925,65.5847751 L35.7375,65.5847751 C35.7375,65.5847751 35.9625,65.5847751 35.7375,65.8062284 L35.5125,66.4705882 C35.5125,66.5813149 35.4,66.5813149 35.2875,66.5813149 L32.8125,66.5813149 C32.8125,67.467128 32.7,68.3529412 32.7,69.2387543 L32.7,71.2318339 L32.925,71.2318339 L32.925,71.2318339 Z M37.2,63.1487889 C37.2,62.0415225 36.975,61.8200692 36.3,61.5986159 L35.9625,61.4878893 C35.85,61.4878893 35.85,61.3771626 35.85,61.3771626 L35.85,61.1557093 C35.9625,61.1557093 35.9625,61.1557093 36.075,60.9342561 L38.2125,60.0484429 C38.325,59.9377163 38.55,59.9377163 38.6625,59.9377163 C38.775,59.9377163 38.8875,60.0484429 38.775,60.3806228 C38.775,60.7128028 38.6625,64.5882353 38.6625,65.4740484 L38.6625,66.6920415 L38.775,66.6920415 C39.45,65.916955 40.575,65.4740484 41.475,65.4740484 C42.2625,65.4740484 42.825,65.6955017 43.3875,66.2491349 C44.2875,67.0242215 44.175,68.0207612 44.175,69.017301 L44.175,70.1245675 C44.175,71.2318339 44.175,72.3391003 44.175,72.7820069 C44.175,73.0034602 44.5125,73.1141869 44.85,73.1141869 L45.1875,73.1141869 C45.3,73.1141869 45.4125,73.1141869 45.4125,73.3356401 L45.4125,73.6678201 C45.4125,73.7785467 45.4125,73.8892734 45.3,73.8892734 C45.1875,73.8892734 44.5125,73.7785467 43.5,73.7785467 C42.6,73.7785467 41.8125,73.8892734 41.7,73.8892734 C41.5875,73.8892734 41.3625,73.6678201 41.3625,73.5570934 L41.3625,73.2249135 C41.3625,73.1141869 41.3625,73.1141869 41.475,73.1141869 L41.925,73.1141869 C42.2625,73.1141869 42.6,73.1141869 42.7125,72.7820069 C42.7125,72.5605536 42.7125,71.4532872 42.7125,70.899654 L42.7125,69.349481 C42.7125,68.2422145 42.6,67.5778547 42.0375,67.0242215 C41.7,66.6920415 41.3625,66.4705882 40.8,66.4705882 C40.2375,66.4705882 39.675,66.6920415 39.1125,67.2456747 C38.8875,67.467128 38.775,67.799308 38.775,68.1314879 L38.775,72.2283737 C38.775,72.7820069 38.8875,73.0034602 39.225,73.0034602 L39.7875,73.0034602 C39.9,73.0034602 40.0125,73.0034602 40.0125,73.1141869 L40.0125,73.4463668 C40.0125,73.5570934 40.0125,73.6678201 39.9,73.6678201 C39.7875,73.6678201 39,73.5570934 38.1,73.5570934 C37.0875,73.5570934 36.4125,73.6678201 36.1875,73.6678201 C36.075,73.6678201 36.075,73.5570934 36.075,73.4463668 L36.075,73.1141869 C36.075,73.0034602 36.1875,73.0034602 36.4125,73.0034602 L36.8625,73.0034602 C37.2,73.0034602 37.425,72.8927336 37.5375,72.6712803 C37.65,72.3391003 37.65,70.2352941 37.65,69.017301 L37.65,63.1487889 L37.2,63.1487889 L37.2,63.1487889 Z M49.8,68.0207612 C50.1375,68.0207612 50.3625,67.9100346 50.3625,67.799308 C50.3625,67.3564014 50.1375,66.1384083 48.9,66.1384083 C48,66.1384083 47.2125,66.6920415 46.875,68.1314879 L49.8,68.0207612 L49.8,68.0207612 Z M46.7625,68.5743945 C46.7625,68.7958478 46.65,69.017301 46.65,69.4602076 C46.65,71.3425606 47.8875,72.7820069 49.35,72.7820069 C50.475,72.7820069 51.375,72.1176471 51.7125,71.4532872 C51.7125,71.3425606 51.825,71.3425606 51.9375,71.3425606 L52.1625,71.4532872 C52.275,71.4532872 52.275,71.5640138 52.1625,71.7854671 C51.825,72.5605536 50.8125,73.8892734 49.125,73.8892734 C48,73.8892734 46.7625,73.5570934 46.0875,72.5605536 C45.4125,71.5640138 45.1875,70.899654 45.1875,69.5709343 C45.1875,68.7958478 45.4125,67.5778547 46.425,66.5813149 C47.2125,65.5847751 48.3375,65.5847751 49.2375,65.5847751 C51.4875,65.5847751 52.05,67.6885813 52.05,68.3529412 C52.05,68.5743945 51.825,68.6851211 51.4875,68.6851211 L46.7625,68.5743945 L46.7625,68.5743945 Z M53.9625,68.5743945 C53.9625,67.5778547 53.85,67.467128 53.2875,67.1349481 L52.95,66.9134948 C52.8375,66.9134948 52.8375,66.8027682 52.8375,66.8027682 L52.8375,66.6920415 C52.8375,66.5813149 52.8375,66.5813149 52.95,66.4705882 L54.8625,65.4740484 C54.975,65.3633218 55.0875,65.3633218 55.0875,65.3633218 C55.2,65.3633218 55.2,65.4740484 55.2,65.5847751 L55.3125,66.9134948 L55.425,66.9134948 C55.9875,66.0276817 56.8875,65.2525952 57.7875,65.2525952 C58.4625,65.2525952 58.8,65.6955017 58.8,66.1384083 C58.8,66.6920415 58.35,67.0242215 58.0125,67.0242215 C57.7875,67.0242215 57.5625,66.9134948 57.45,66.9134948 C57.3375,66.6920415 57.1125,66.6920415 56.775,66.6920415 C56.4375,66.6920415 55.9875,66.9134948 55.65,67.467128 C55.5375,67.6885813 55.425,68.0207612 55.425,68.0207612 L55.425,72.0069204 C55.425,72.5605536 55.5375,72.7820069 55.9875,72.7820069 L56.8875,72.7820069 C57,72.7820069 57,72.8927336 57,73.0034602 L57,73.3356401 C57,73.4463668 57,73.5570934 56.8875,73.5570934 C56.775,73.5570934 55.875,73.4463668 54.8625,73.4463668 C53.625,73.4463668 52.8375,73.5570934 52.725,73.5570934 C52.6125,73.5570934 52.6125,73.5570934 52.6125,73.3356401 L52.6125,73.0034602 C52.6125,72.8927336 52.6125,72.7820069 52.8375,72.7820069 L53.625,72.7820069 C53.9625,72.7820069 54.075,72.6712803 54.075,72.449827 C54.075,71.7854671 54.075,71.1211073 54.075,70.1245675 L53.9625,68.5743945 L53.9625,68.5743945 Z M66.675,72.5605536 C66.675,72.8927336 66.9,73.0034602 67.125,73.0034602 L67.6875,73.0034602 C67.9125,73.0034602 67.9125,73.1141869 67.9125,73.2249135 L67.9125,73.5570934 C67.9125,73.6678201 67.9125,73.7785467 67.8,73.7785467 C67.6875,73.7785467 67.0125,73.6678201 66,73.6678201 C64.9875,73.6678201 64.425,73.7785467 64.3125,73.7785467 C64.2,73.7785467 64.2,73.6678201 64.2,73.5570934 L64.2,73.2249135 C64.2,73.1141869 64.3125,73.0034602 64.425,73.0034602 L64.9875,73.0034602 C65.2125,73.0034602 65.325,72.8927336 65.325,72.5605536 C65.325,72.1176471 65.325,71.4532872 65.325,71.0103806 L65.325,68.4636678 C65.325,67.6885813 65.325,67.1349481 64.7625,66.8027682 C64.3125,66.4705882 63.8625,66.4705882 63.3,66.4705882 C62.9625,66.4705882 62.2875,66.5813149 61.725,67.2456747 C61.3875,67.6885813 61.275,68.1314879 61.275,68.5743945 L61.275,72.5605536 C61.275,73.1141869 61.3875,73.2249135 61.725,73.2249135 L62.175,73.2249135 C62.2875,73.2249135 62.4,73.3356401 62.4,73.4463668 L62.4,73.7785467 C62.4,73.8892734 62.4,74 62.2875,74 C62.175,74 61.6125,73.8892734 60.6,73.8892734 C59.5875,73.8892734 59.025,74 58.9125,74 C58.8,74 58.8,73.8892734 58.8,73.7785467 L58.8,73.4463668 C58.8,73.3356401 58.8,73.2249135 59.025,73.2249135 L59.5875,73.2249135 C59.8125,73.2249135 59.925,73.1141869 59.925,72.8927336 L59.925,68.4636678 C59.925,67.9100346 59.5875,67.5778547 59.1375,67.3564014 L59.025,67.2456747 C58.9125,67.1349481 58.9125,67.1349481 58.9125,67.0242215 L58.9125,66.9134948 C58.9125,66.8027682 59.025,66.8027682 59.1375,66.6920415 L60.825,65.8062284 C60.9375,65.6955017 61.05,65.6955017 61.1625,65.6955017 C61.275,65.6955017 61.275,65.8062284 61.275,65.916955 L61.3875,67.0242215 C61.95,66.3598616 63.075,65.5847751 64.0875,65.5847751 C64.65,65.5847751 65.2125,65.6955017 65.775,66.0276817 C66.3375,66.3598616 66.7875,67.3564014 66.7875,67.799308 L66.675,72.5605536 L66.675,72.5605536 Z M74.325,72.1176471 C72.975,70.7889273 72.3,68.5743945 72.3,66.8027682 C72.3,65.0311419 72.8625,63.2595156 74.325,61.7093426 C75.3375,60.7128028 77.025,59.8269896 79.1625,59.8269896 C80.9625,59.8269896 82.425,60.4913495 83.1,60.8235294 C83.325,60.9342561 83.4375,60.9342561 83.4375,60.8235294 L83.55,60.2698962 C83.55,60.1591696 83.6625,60.1591696 83.775,60.1591696 C84,60.1591696 84,60.1591696 84,60.4913495 C84,60.8235294 84.3375,63.7024221 84.45,64.1453287 C84.45,64.2560554 84.45,64.366782 84.3375,64.366782 L84,64.4775087 C83.8875,64.4775087 83.8875,64.4775087 83.775,64.366782 C83.55,63.7024221 83.1,62.816609 82.3125,62.0415225 C81.525,61.266436 80.5125,60.6020761 78.9375,60.6020761 C75.45,60.6020761 74.1,63.5916955 74.1,66.3598616 C74.1,67.467128 74.4375,69.5709343 75.9,71.2318339 C77.25,72.6712803 78.2625,72.7820069 79.6125,72.7820069 C81.75,72.7820069 83.55,71.5640138 84.3375,70.3460208 C84.45,70.2352941 84.45,70.2352941 84.45,70.2352941 L84.675,70.4567474 C84.7875,70.4567474 84.7875,70.567474 84.675,70.6782007 C83.55,72.3391003 81.6375,73.8892734 78.9375,73.8892734 C77.025,73.7785467 75.45,73.1141869 74.325,72.1176471 M89.85,69.4602076 C89.175,70.0138408 87.2625,70.3460208 87.2625,71.8961938 C87.2625,72.5605536 87.7125,72.8927336 88.275,72.8927336 C88.8375,72.8927336 89.85,72.2283737 89.85,71.6747405 L89.85,69.4602076 Z M91.2,71.3425606 C91.2,72.449827 91.425,72.7820069 91.7625,72.7820069 C92.1,72.7820069 92.325,72.6712803 92.4375,72.449827 C92.55,72.3391003 92.55,72.3391003 92.6625,72.3391003 L92.8875,72.449827 C93,72.5605536 93,72.5605536 92.8875,72.7820069 C92.775,73.1141869 92.325,73.6678201 91.425,73.6678201 C90.75,73.6678201 90.1875,73.2249135 90.075,72.3391003 C89.625,72.7820069 89.0625,73.2249135 88.1625,73.4463668 C87.825,73.5570934 87.4875,73.5570934 87.0375,73.5570934 C86.5875,73.5570934 85.9125,73.2249135 85.9125,72.0069204 C85.9125,71.1211073 86.3625,70.3460208 87.825,69.6816609 C88.725,69.349481 89.7375,68.7958478 89.9625,68.5743945 L89.9625,67.3564014 C89.9625,67.0242215 89.85,66.5813149 89.7375,66.2491349 C89.5125,66.0276817 89.175,65.8062284 88.6125,65.8062284 C88.275,65.8062284 87.6,65.916955 87.375,66.2491349 C87.15,66.4705882 87.2625,66.8027682 87.2625,67.1349481 C87.2625,67.799308 87.0375,68.2422145 86.25,68.2422145 C85.9125,68.2422145 85.8,68.0207612 85.8,67.6885813 C85.8,67.1349481 86.3625,66.3598616 87.15,65.916955 C87.9375,65.4740484 88.6125,65.2525952 89.5125,65.2525952 C90.4125,65.2525952 90.75,65.4740484 91.0875,65.8062284 C91.5375,66.2491349 91.5375,66.6920415 91.5375,67.1349481 L91.5375,70.0138408 L91.5375,71.3425606 L91.2,71.3425606 Z M96.2625,68.0207612 C96.2625,69.017301 96.2625,71.8961938 96.2625,72.449827 C96.2625,72.7820069 96.375,73.0034602 96.7125,73.0034602 L97.6125,73.0034602 C97.8375,73.0034602 97.8375,73.1141869 97.8375,73.2249135 L97.8375,73.5570934 C97.8375,73.6678201 97.8375,73.7785467 97.725,73.7785467 C97.6125,73.7785467 96.7125,73.6678201 95.5875,73.6678201 C94.35,73.6678201 93.5625,73.7785467 93.45,73.7785467 C93.3375,73.7785467 93.3375,73.6678201 93.3375,73.5570934 L93.3375,73.2249135 C93.3375,73.1141869 93.3375,73.0034602 93.5625,73.0034602 L94.4625,73.0034602 C94.6875,73.0034602 94.9125,72.8927336 94.9125,72.5605536 C94.9125,72.0069204 94.9125,68.6851211 94.9125,67.5778547 L94.9125,66.3598616 C94.9125,65.0311419 94.9125,63.2595156 94.8,62.816609 C94.8,62.1522491 94.4625,61.8200692 93.7875,61.7093426 L93.45,61.5986159 C93.3375,61.5986159 93.3375,61.4878893 93.3375,61.4878893 L93.3375,61.3771626 C93.3375,61.1557093 93.3375,61.1557093 93.45,61.1557093 C94.125,60.8235294 95.025,60.4913495 95.7,60.0484429 C96.0375,60.0484429 96.15,60.0484429 96.2625,60.0484429 C96.375,60.0484429 96.4875,60.1591696 96.375,60.3806228 C96.375,61.3771626 96.2625,65.3633218 96.2625,66.4705882 L96.2625,68.0207612 Z M98.9625,62.2629758 C98.9625,61.8200692 99.4125,61.266436 100.0875,61.266436 C100.7625,61.266436 101.1,61.8200692 101.1,62.1522491 C101.1,62.5951557 100.7625,63.1487889 99.975,63.1487889 C99.6375,63.1487889 98.9625,62.816609 98.9625,62.2629758 Z M99.975,68.0207612 C99.975,67.3564014 99.8625,67.0242215 98.85,66.9134948 C98.7375,66.9134948 98.625,66.8027682 98.625,66.8027682 L98.625,66.6920415 C98.625,66.5813149 98.625,66.5813149 98.7375,66.5813149 C99.3,66.3598616 100.0875,66.0276817 100.875,65.6955017 C100.9875,65.5847751 101.1,65.5847751 101.2125,65.5847751 C101.325,65.5847751 101.325,65.6955017 101.325,65.8062284 C101.325,66.1384083 101.325,67.3564014 101.325,68.9065744 L101.325,71.0103806 C101.325,71.7854671 101.325,72.449827 101.325,72.6712803 C101.325,73.0034602 101.4375,73.1141869 101.6625,73.1141869 L102.5625,73.1141869 C102.675,73.1141869 102.7875,73.2249135 102.7875,73.3356401 L102.7875,73.6678201 C102.7875,73.7785467 102.7875,73.8892734 102.5625,73.8892734 C102.45,73.8892734 101.55,73.7785467 100.7625,73.7785467 C99.6375,73.7785467 98.85,73.8892734 98.625,73.8892734 C98.5125,73.8892734 98.5125,73.8892734 98.5125,73.7785467 L98.5125,73.4463668 C98.5125,73.3356401 98.625,73.3356401 98.7375,73.3356401 L99.6375,73.3356401 C99.8625,73.3356401 99.975,73.2249135 99.975,73.0034602 C99.975,72.449827 99.975,71.8961938 99.975,71.2318339 L99.975,68.0207612 L99.975,68.0207612 Z M104.7,66.4705882 L103.35,66.4705882 C103.2375,66.4705882 103.2375,66.4705882 103.2375,66.2491349 L103.35,65.6955017 C103.35,65.5847751 103.4625,65.5847751 103.575,65.5847751 L104.7,65.5847751 L104.7,65.2525952 C104.7,63.3702422 105.2625,62.1522491 106.05,61.266436 C107.0625,60.1591696 108.1875,59.716263 109.2,59.716263 C110.1,59.716263 111,60.0484429 111,60.8235294 C111,61.266436 110.55,61.5986159 110.2125,61.5986159 C109.9875,61.5986159 109.875,61.5986159 109.65,61.4878893 C109.5375,61.3771626 109.3125,61.1557093 109.2,61.1557093 C108.975,60.8235294 108.6375,60.7128028 108.3,60.7128028 C107.85,60.7128028 107.2875,60.8235294 106.8375,61.3771626 C106.1625,62.2629758 106.1625,63.9238754 106.1625,65.2525952 L106.1625,65.5847751 L108.525,65.5847751 C108.6375,65.5847751 108.6375,65.6955017 108.6375,65.8062284 L108.525,66.4705882 C108.525,66.5813149 108.4125,66.5813149 108.3,66.5813149 L106.1625,66.5813149 L106.1625,68.2422145 C106.1625,70.4567474 106.1625,72.2283737 106.1625,72.449827 C106.1625,72.7820069 106.275,72.8927336 106.6125,72.8927336 L107.7375,72.8927336 C107.9625,72.8927336 107.9625,72.8927336 107.9625,73.0034602 L107.9625,73.3356401 C107.9625,73.4463668 107.9625,73.5570934 107.85,73.5570934 C107.7375,73.5570934 107.0625,73.4463668 105.4875,73.4463668 C104.475,73.4463668 103.4625,73.5570934 103.2375,73.5570934 C103.125,73.5570934 103.125,73.5570934 103.125,73.4463668 L103.125,73.1141869 C103.125,73.0034602 103.125,73.0034602 103.35,73.0034602 L104.25,73.0034602 C104.5875,73.0034602 104.7,72.7820069 104.7,72.3391003 L104.7,68.7958478 L104.7,66.4705882 Z" id="Shape" fill="#231F20"></path>
            <path d="M115.378378,70.3815789 C115.378378,68.1315789 113.864865,66.7105263 112.891892,66.7105263 C112.351351,66.7105263 111.918919,66.8289474 111.486486,67.3026316 C110.72973,68.1315789 110.513514,68.9605263 110.513514,70.5 C110.513514,71.6842105 110.621622,72.3947368 111.27027,73.3421053 C111.702703,74.0526316 112.243243,74.4078947 113.108108,74.4078947 C114.513514,74.4078947 115.378378,72.5131579 115.378378,70.3815789 M109.972973,73.5789474 C109.108108,72.5131579 109,71.6842105 109,70.2631579 C109,69.1973684 109.540541,67.8947368 110.621622,66.9473684 C111.594595,66.1184211 112.459459,66 113.108108,66 C114.081081,66 115.162162,66.5921053 115.702703,67.1842105 C116.567568,68.1315789 117,69.1973684 117,70.5 C117,72.75 115.162162,75 112.891892,75 C111.918919,75 110.837838,74.7631579 109.972973,73.5789474" id="Shape" fill="#231F20"></path>
            <path d="M118.356206,69.4608696 C118.356206,68.4434783 118.243189,68.3304348 117.678103,67.9913043 L117.339051,67.7652174 C117.226034,67.7652174 117.226034,67.6521739 117.226034,67.6521739 L117.226034,67.5391304 C117.226034,67.426087 117.226034,67.426087 117.339051,67.3130435 L119.260343,66.2956522 C119.37336,66.1826087 119.486377,66.1826087 119.486377,66.1826087 C119.599395,66.1826087 119.599395,66.2956522 119.599395,66.4086957 L119.712412,67.7652174 L119.825429,67.7652174 C120.390515,66.8608696 121.294652,66.0695652 122.198789,66.0695652 C122.876892,66.0695652 123.215943,66.5217391 123.215943,66.973913 C123.215943,67.5391304 122.763875,67.8782609 122.424823,67.8782609 C122.198789,67.8782609 121.972755,67.7652174 121.859738,67.7652174 C121.74672,67.5391304 121.407669,67.5391304 121.181635,67.5391304 C120.842583,67.5391304 120.390515,67.7652174 120.051463,68.3304348 C119.938446,68.5565217 119.825429,68.8956522 119.825429,68.8956522 L119.825429,72.9652174 C119.825429,73.5304348 119.938446,73.7565217 120.390515,73.7565217 L121.294652,73.7565217 C121.407669,73.7565217 121.407669,73.8695652 121.407669,73.9826087 L121.407669,74.3217391 C121.407669,74.4347826 121.407669,74.5478261 121.294652,74.5478261 C121.181635,74.5478261 120.277497,74.4347826 119.260343,74.4347826 C118.017154,74.4347826 117.226034,74.5478261 117.113017,74.5478261 C117,74.5478261 117,74.5478261 117,74.3217391 L117,73.9826087 C117,73.8695652 117,73.7565217 117.226034,73.7565217 L118.017154,73.7565217 C118.356206,73.7565217 118.469223,73.6434783 118.469223,73.4173913 C118.469223,72.7391304 118.469223,72.0608696 118.469223,71.0434783 L118.356206,69.4608696 L118.356206,69.4608696 Z M131.466196,73.5304348 C131.466196,73.8695652 131.69223,73.9826087 131.918264,73.9826087 L132.596367,73.9826087 C132.822402,73.9826087 132.822402,74.0956522 132.822402,74.2086957 L132.822402,74.5478261 C132.822402,74.6608696 132.822402,74.773913 132.709384,74.773913 C132.596367,74.773913 131.918264,74.6608696 130.90111,74.6608696 C129.883956,74.6608696 129.31887,74.773913 129.205853,74.773913 C129.092836,74.773913 129.092836,74.6608696 129.092836,74.5478261 L129.092836,74.2086957 C129.092836,74.0956522 129.205853,73.9826087 129.31887,73.9826087 L129.883956,73.9826087 C130.10999,73.9826087 130.223007,73.8695652 130.223007,73.5304348 C130.223007,73.0782609 130.223007,72.4 130.223007,71.9478261 L130.223007,69.3478261 C130.223007,68.5565217 130.223007,67.9913043 129.657921,67.6521739 C129.205853,67.3130435 128.753784,67.3130435 128.188698,67.3130435 C127.849647,67.3130435 127.171544,67.426087 126.606458,68.1043478 C126.267407,68.5565217 126.15439,69.0086957 126.15439,69.4608696 L126.15439,73.5304348 C126.15439,74.0956522 126.267407,74.2086957 126.606458,74.2086957 L127.058527,74.2086957 C127.171544,74.2086957 127.284561,74.3217391 127.284561,74.4347826 L127.284561,74.773913 C127.284561,74.8869565 127.284561,75 127.171544,75 C127.058527,75 126.493441,74.8869565 125.476287,74.8869565 C124.459132,74.8869565 123.894046,75 123.781029,75 C123.668012,75 123.668012,74.8869565 123.668012,74.773913 L123.668012,74.4347826 C123.668012,74.3217391 123.668012,74.2086957 123.894046,74.2086957 L124.459132,74.2086957 C124.685166,74.2086957 124.798184,74.0956522 124.798184,73.8695652 L124.798184,69.3478261 C124.798184,68.7826087 124.459132,68.4434783 124.007064,68.2173913 L123.894046,68.1043478 C123.781029,67.9913043 123.781029,67.9913043 123.781029,67.8782609 L123.781029,67.7652174 C123.781029,67.6521739 123.894046,67.6521739 124.007064,67.5391304 L125.702321,66.6347826 C125.815338,66.5217391 125.928355,66.5217391 126.041372,66.5217391 C126.15439,66.5217391 126.15439,66.6347826 126.15439,66.7478261 L126.267407,67.8782609 C126.832492,67.2 127.962664,66.4086957 128.979818,66.4086957 C129.544904,66.4086957 130.10999,66.5217391 130.675076,66.8608696 C131.240161,67.2 131.69223,68.2173913 131.69223,68.6695652 L131.69223,73.5304348 L131.466196,73.5304348 Z M133.726539,63.0173913 C133.726539,62.5652174 134.178607,62 134.85671,62 C135.534813,62 135.873865,62.5652174 135.873865,62.9043478 C135.873865,63.3565217 135.534813,63.9217391 134.743693,63.9217391 C134.291625,63.9217391 133.726539,63.5826087 133.726539,63.0173913 Z M134.404642,68.8956522 C134.404642,68.2173913 134.291625,67.8782609 133.27447,67.7652174 C133.161453,67.7652174 133.048436,67.6521739 133.048436,67.6521739 L133.048436,67.5391304 C133.048436,67.426087 133.048436,67.426087 133.161453,67.426087 C133.726539,67.2 134.517659,66.8608696 135.308779,66.5217391 C135.421796,66.4086957 135.534813,66.4086957 135.64783,66.4086957 C135.760848,66.4086957 135.760848,66.5217391 135.760848,66.6347826 C135.760848,66.973913 135.760848,68.2173913 135.760848,69.8 L135.760848,71.9478261 C135.760848,72.7391304 135.760848,73.4173913 135.760848,73.6434783 C135.760848,73.9826087 135.873865,74.0956522 136.099899,74.0956522 L137.004036,74.0956522 C137.117053,74.0956522 137.230071,74.2086957 137.230071,74.3217391 L137.230071,74.6608696 C137.230071,74.773913 137.230071,74.8869565 137.004036,74.8869565 C136.891019,74.8869565 135.986882,74.773913 135.195762,74.773913 C134.06559,74.773913 133.27447,74.8869565 133.048436,74.8869565 C132.935419,74.8869565 132.935419,74.8869565 132.935419,74.773913 L132.935419,74.4347826 C132.935419,74.3217391 132.935419,74.3217391 133.161453,74.3217391 L134.06559,74.3217391 C134.291625,74.3217391 134.404642,74.2086957 134.404642,73.9826087 C134.404642,73.4173913 134.404642,72.8521739 134.404642,72.173913 L134.404642,68.8956522 L134.404642,68.8956522 Z M141.750757,70.3652174 C141.072654,70.9304348 139.151362,71.2695652 139.151362,72.8521739 C139.151362,73.5304348 139.603431,73.8695652 140.168517,73.8695652 C140.733602,73.8695652 141.750757,73.1913043 141.750757,72.626087 L141.750757,70.3652174 L141.750757,70.3652174 Z M143.21998,72.2869565 C143.21998,73.4173913 143.446014,73.7565217 143.785066,73.7565217 C144.124117,73.7565217 144.350151,73.6434783 144.463169,73.4173913 C144.576186,73.3043478 144.576186,73.3043478 144.689203,73.3043478 L144.915237,73.4173913 C145.028254,73.5304348 145.028254,73.5304348 144.915237,73.7565217 C144.80222,74.0956522 144.350151,74.6608696 143.446014,74.6608696 C142.767911,74.6608696 142.202825,74.2086957 142.089808,73.3043478 C141.63774,73.7565217 141.072654,74.2086957 140.168517,74.4347826 C139.829465,74.5478261 139.490414,74.5478261 139.038345,74.5478261 C138.586276,74.5478261 137.908174,74.2086957 137.908174,72.9652174 C137.908174,72.0608696 138.360242,71.2695652 139.829465,70.5913043 C140.733602,70.2521739 141.750757,69.6869565 141.976791,69.4608696 L141.976791,68.2173913 C141.976791,67.8782609 141.863774,67.426087 141.750757,67.0869565 C141.524723,66.8608696 141.185671,66.6347826 140.620585,66.6347826 C140.281534,66.6347826 139.603431,66.7478261 139.377397,67.0869565 C139.151362,67.3130435 139.264379,67.6521739 139.264379,67.9913043 C139.264379,68.6695652 139.038345,69.1217391 138.247225,69.1217391 C137.908174,69.1217391 137.795156,68.8956522 137.795156,68.5565217 C137.795156,67.9913043 138.360242,67.2 139.151362,66.7478261 C139.942482,66.2956522 140.620585,66.0695652 141.524723,66.0695652 C142.42886,66.0695652 142.767911,66.2956522 143.106963,66.6347826 C143.559031,67.0869565 143.559031,67.5391304 143.559031,67.9913043 L143.559031,70.9304348 L143.559031,72.2869565 L143.21998,72.2869565 Z" id="Shape" fill="#231F20"></path>
        </g>
    </g>
</svg>